<svg xmlns="http://www.w3.org/2000/svg" viewBox="0 0 128 128">
  <rect width="128" height="128" rx="24" fill="#3A4229"/>
  <svg x="28" y="14" width="72" height="100" viewBox="0 0 557 714">
    <path d="M4.31783 714C2.15891 711.84 1.07946 706.079 1.07946 696.717C1.07946 687.356 2.15891 682.675 4.31783 682.675C10.7946 682.675 19.4302 681.595 30.2248 679.434C41.0194 676.554 51.0943 673.313 60.4496 669.713C70.5245 666.112 76.6415 662.151 78.8004 657.831C83.8379 649.909 86.3566 616.064 86.3566 556.293L86.3566 147.985C86.3566 127.101 85.637 108.738 84.1977 92.8956C83.478 77.0529 81.6789 64.4508 78.8004 55.0893C77.3611 50.7685 71.604 46.8079 61.5291 43.2073C52.1738 39.6067 41.739 36.7262 30.2248 34.5658C19.4302 32.4054 10.7946 31.3253 4.31783 31.3253C1.43928 31.3253 0 27.0045 0 18.3631C0 9.00151 1.43928 2.88048 4.31783 0C23.0284 0.720121 42.8185 1.44024 63.688 2.16036C85.2771 2.16036 108.306 2.16036 132.773 2.16036L223.448 1.08018L284.977 1.08018C294.332 1.08018 303.687 1.44024 313.043 2.16036C323.118 2.88048 332.833 3.96067 342.188 5.40091C370.974 10.4418 397.96 20.1634 423.147 34.5658C449.054 48.2481 469.924 66.9713 485.756 90.7352C502.308 114.499 510.583 143.664 510.583 178.23C510.583 203.434 502.308 227.558 485.756 250.602C469.204 272.926 453.732 288.408 439.339 297.05C425.666 305.691 413.792 311.812 403.717 315.413C397.96 317.573 396.161 319.734 398.32 321.894C412.713 324.054 428.904 330.536 446.895 341.337C464.886 352.139 482.158 366.182 498.709 383.464C515.261 400.027 528.934 419.11 539.729 440.714C551.243 462.318 557 485.002 557 508.765C557 549.812 545.486 585.458 522.457 615.703C500.149 645.949 468.485 669.352 427.465 685.915C386.446 702.478 338.23 710.759 282.818 710.759H134.932L4.31783 714ZM251.514 307.852C274.542 307.852 294.692 306.772 311.963 304.611C341.468 301.731 365.936 291.649 385.366 274.366C405.516 256.363 415.591 232.599 415.591 203.074C415.591 153.386 402.997 114.859 377.81 87.4947C353.342 59.41 316.641 45.3676 267.705 45.3676C233.882 45.3676 208.335 47.888 191.064 52.9289C186.746 53.649 184.587 56.8896 184.587 62.6505L180.269 171.749L180.269 300.29C180.269 305.331 204.017 307.852 251.514 307.852ZM255.831 662.151C273.822 662.151 291.453 660.711 308.725 657.831C326.716 654.95 347.945 649.189 372.413 640.548C396.881 632.626 416.671 618.584 431.783 598.421C446.895 577.537 454.452 551.613 454.452 520.647C454.452 489.682 447.615 461.598 433.942 436.393C420.269 411.189 399.399 391.026 371.333 375.903C343.267 360.781 306.926 353.219 262.308 353.219C254.392 353.219 243.957 353.579 231.004 354.3C218.05 355.02 202.578 356.1 184.587 357.54C181.709 365.461 180.269 377.343 180.269 393.186L180.269 550.893C180.269 605.622 186.026 637.667 197.541 647.029C209.055 657.11 228.485 662.151 255.831 662.151Z" fill="white"/>
  </svg>
</svg>
