<svg xmlns="http://www.w3.org/2000/svg" viewBox="0 0 32 32">
  <rect x="1" y="1" width="30" height="30" rx="9" fill="#E07A3C"/>
  <path d="M9 10.5 C 9 9.67 9.67 9 10.5 9 H 17.2 C 20.4 9 22.6 10.8 22.6 13.6 C 22.6 15.2 21.7 16.4 20.4 17 C 22.1 17.6 23.2 19 23.2 20.9 C 23.2 23.9 20.8 26 17.2 26 H 10.5 C 9.67 26 9 25.33 9 24.5 Z M 13 12.5 V 16 H 16.5 C 17.8 16 18.6 15.3 18.6 14.25 C 18.6 13.2 17.8 12.5 16.5 12.5 Z M 13 19 V 22.5 H 17 C 18.4 22.5 19.2 21.75 19.2 20.75 C 19.2 19.75 18.4 19 17 19 Z" fill="#FFF8EF"/>
</svg>
